<svg xmlns="http://www.w3.org/2000/svg" viewBox="0 0 24 24" fill="currentColor"><path d="M12 0C5.373 0 0 5.373 0 12s5.373 12 12 12 12-5.373 12-12S18.627 0 12 0zm.44 17.938c-1.21.09-2.41-.18-3.44-.77l1.01-1.75c.68.4 1.47.59 2.27.54 1.28-.09 2.3-.92 2.3-2.07 0-.94-.6-1.57-1.87-1.94l-.77-.23c-1.94-.58-3.01-1.71-3.01-3.35 0-2.07 1.67-3.55 3.99-3.71 1.08-.08 2.16.16 3.09.69l-.95 1.78c-.61-.36-1.31-.53-2.02-.48-1.15.08-2.02.78-2.02 1.82 0 .85.54 1.41 1.72 1.76l.79.23c2.06.6 3.14 1.77 3.14 3.51 0 2.21-1.77 3.79-4.17 3.97z"/></svg>