<svg xmlns="http://www.w3.org/2000/svg" viewBox="0 0 24 24" fill="currentColor"><path d="M11.986 0C5.364 0 0 5.373 0 12c0 6.628 5.364 12 11.986 12C18.627 24 24 18.628 24 12 24 5.373 18.627 0 11.986 0zm5.5 14.68c-1.283 2.14-3.612 3.436-6.115 3.16-2.845-.308-5.13-2.588-5.445-5.43-.38-3.4 2.05-6.45 5.38-6.84.25-.03.49-.04.73-.04 2.67 0 5.04 1.68 5.96 4.19h-2.2c-.76-1.33-2.19-2.16-3.76-2.09-2.12.1-3.82 1.86-3.85 3.98-.03 2.2 1.73 4.02 3.94 4.02 1.52 0 2.88-.83 3.59-2.08h2.21c-.12.37-.27.73-.44 1.07z"/></svg>